<svg width="61" height="61" viewBox="0 0 61 61" fill="none" xmlns="http://www.w3.org/2000/svg">
<rect width="61" height="61" rx="7" fill="#F6F7F8"/>
<path d="M36.3508 38.9361C36.0428 38.9361 35.7893 38.8357 35.5902 38.635C35.3912 38.4334 35.2917 38.1842 35.2917 37.8874V32.4571C35.2917 32.1491 35.3921 31.8956 35.5928 31.6966C35.7944 31.4975 36.0436 31.398 36.3404 31.398H41.772C42.08 31.398 42.3331 31.4988 42.5313 31.7004C42.7294 31.902 42.8289 32.1508 42.8298 32.4467V37.8783C42.8298 38.1863 42.7294 38.4394 42.5287 38.6376C42.3279 38.8357 42.0787 38.9352 41.7811 38.9361H36.3508ZM31.1489 28.3039C30.8521 28.3039 30.6034 28.2035 30.4027 28.0028C30.2019 27.8021 30.1011 27.5529 30.1002 27.2552V21.8236C30.1002 21.5165 30.201 21.2634 30.4027 21.0644C30.6043 20.8654 30.853 20.7659 31.1489 20.7659H41.7811C42.0787 20.7659 42.3279 20.8662 42.5287 21.067C42.7294 21.2677 42.8298 21.5169 42.8298 21.8146V27.2461C42.8298 27.5533 42.7294 27.8064 42.5287 28.0054C42.3271 28.2044 42.0779 28.3039 41.7811 28.3039H31.1489ZM20.5168 38.9361C20.22 38.9361 19.9708 38.8357 19.7692 38.635C19.5676 38.4342 19.4672 38.185 19.4681 37.8874V32.4571C19.4681 32.1491 19.5684 31.8956 19.7692 31.6966C19.9699 31.4975 20.2191 31.398 20.5168 31.398H31.1489C31.4457 31.398 31.6949 31.4984 31.8965 31.6991C32.0981 31.8999 32.1985 32.1491 32.1976 32.4467V37.8783C32.1976 38.1863 32.0972 38.4394 31.8965 38.6376C31.6958 38.8357 31.4466 38.9352 31.1489 38.9361H20.5168ZM20.5258 28.3039C20.2187 28.3039 19.9656 28.2035 19.7666 28.0028C19.5676 27.8021 19.4681 27.5529 19.4681 27.2552V21.8236C19.4681 21.5165 19.5684 21.2634 19.7692 21.0644C19.9699 20.8654 20.2191 20.7659 20.5168 20.7659H25.9484C26.2555 20.7659 26.5086 20.8662 26.7076 21.067C26.9066 21.2677 27.0061 21.5169 27.0061 21.8146V27.2461C27.0061 27.5533 26.9058 27.8064 26.705 28.0054C26.5034 28.2044 26.2542 28.3039 25.9574 28.3039H20.5258Z" fill="black"/>
</svg>
