<svg width="25" height="32" viewBox="0 0 25 32" fill="none" xmlns="http://www.w3.org/2000/svg">
<path d="M0.395788 14.9139L6.2863 2.56997C7.03431 1.00248 8.40053 0.414679 8.99015 0.316711C13.5931 1.0678 22.9149 2.56997 23.3785 2.56997C23.842 2.56997 24.0222 3.28839 24.0544 3.64761C24.0222 6.91319 23.9772 13.9734 24.0544 16.0895C24.1317 18.2056 23.636 18.5387 23.3785 18.4407C20.0308 19.9755 13.0459 24.0836 11.8871 28.2375C10.7283 32.3913 9.15109 31.797 8.50732 30.9806C4.64468 24.7106 8.50732 21.3797 9.47298 20.0082C10.2455 18.911 9.79486 18.506 9.47298 18.4407C7.60604 18.3101 3.46658 17.9705 1.84428 17.657C0.22197 17.3435 0.202656 15.6976 0.395788 14.9139Z" fill="#AC4242" stroke="#AC4242" stroke-width="0.625"/>
</svg>
